<svg xmlns="http://www.w3.org/2000/svg" viewBox="0 0 168.74 38.45"><defs><style>.cls-1,.cls-2{fill-rule:evenodd;}.cls-2{fill:#fff;}</style></defs><title>---- 1 (2)</title><g id="Слой_2" data-name="Слой 2"><g id="_1" data-name="???? 1"><path class="cls-1" d="M70.5,3.19l-2.6,7H73l-2.48-7Zm8,13.63H75.34L73.75,12.4h-6.6l-1.63,4.42h-3L68.93.15H72Z"/><path class="cls-1" d="M83,8.05h4.07c1.9,0,3.19-.77,3.19-2.74,0-2.15-1.59-2.71-3.44-2.71H83V8.05ZM87.32.17c3.44,0,5.8,1.59,5.8,5.07,0,3.16-2,5.17-5.4,5.17H83v6.41H80.09V.17Z"/><path class="cls-1" d="M98.62,8.05h4.07c1.89,0,3.18-.77,3.18-2.74,0-2.15-1.59-2.71-3.44-2.71H98.62V8.05Zm4.3-7.88c3.44,0,5.8,1.59,5.8,5.07,0,3.16-2,5.17-5.4,5.17h-4.7v6.41H95.69V.17Z"/><polygon class="cls-1" points="122.64 16.82 111.23 16.82 111.23 0.17 114.18 0.17 114.18 14.3 122.64 14.3 122.64 16.82"/><polygon class="cls-1" points="136.66 2.63 127.56 2.63 127.56 7.05 136 7.05 136 9.41 127.56 9.41 127.56 14.32 136.8 14.32 136.8 16.82 124.66 16.82 124.66 0.17 136.66 0.17 136.66 2.63"/><polygon class="cls-1" points="81.75 38.27 78.97 38.27 78.97 25.43 74.33 38.27 71.95 38.27 67.2 25.43 67.2 38.27 64.44 38.27 64.44 21.61 68.53 21.61 73.19 34.64 77.68 21.61 81.75 21.61 81.75 38.27"/><path class="cls-1" d="M91.3,24.63l-2.6,7h5.07l-2.47-7Zm8,13.64H96.14l-1.59-4.42H88l-1.64,4.42h-3l6.43-16.68h3.11Z"/><path class="cls-1" d="M103.72,29.22h3.86c1.92,0,3.83-.28,3.83-2.67,0-2.2-1.7-2.55-3.46-2.55h-4.23v5.22Zm5-7.61c3,0,5.62,1.2,5.62,4.63a4.05,4.05,0,0,1-2.77,4.1c2.13.47,2.34,2.08,2.48,3.79.17,2,.21,3.39.89,4.14h-3.13c-.42-.63-.45-1.78-.54-3.32-.16-2.62-.82-3.56-3.65-3.56h-3.88v6.88h-2.9V21.61Z"/><polygon class="cls-1" points="124.59 28.26 131.67 38.27 128.05 38.27 122.57 30.29 120.19 32.68 120.19 38.27 117.29 38.27 117.29 21.61 120.19 21.61 120.19 29.17 127.56 21.61 131.25 21.61 124.59 28.26"/><polygon class="cls-1" points="145.31 24.07 136.21 24.07 136.21 28.49 144.66 28.49 144.66 30.85 136.21 30.85 136.21 35.77 145.45 35.77 145.45 38.27 133.31 38.27 133.31 21.61 145.31 21.61 145.31 24.07"/><polygon class="cls-1" points="160.03 24.14 154.72 24.14 154.72 38.27 151.79 38.27 151.79 24.14 146.49 24.14 146.49 21.61 160.03 21.61 160.03 24.14"/><path class="cls-1" d="M164.68,12.32a3.06,3.06,0,1,0,3.06,3.06,3.06,3.06,0,0,0-3.06-3.06Zm0,7.11a4.06,4.06,0,1,1,4.06-4A4.06,4.06,0,0,1,164.68,19.43Z"/><path class="cls-1" d="M44.16,4.61v5.62h2.25c0-2.46.11-4.82,0-7.17a3.19,3.19,0,0,0-3.45-3Q26.1,0,9.28,0A3.29,3.29,0,0,0,5.74,3.55c0,1.64,0,3.28,0,4.91v9.67H8.05V4.61Z"/><rect x="12.41" y="24.97" width="22.52" height="6.72"/><path class="cls-1" d="M26,38.43c1.93,0,3.87,0,5.81,0A2,2,0,0,0,34,36.19,2,2,0,0,0,32,34c-3.81-.16-7.62-.28-11.43-.2a2.31,2.31,0,0,0-2.39,2.47c.06,1.57,1.09,2.19,2.57,2.19Z"/><path class="cls-1" d="M44.16,4.61H8.05V18.13H5.72V8.46c0-1.63,0-3.27,0-4.91A3.29,3.29,0,0,1,9.28,0Q26.1,0,42.93,0a3.19,3.19,0,0,1,3.45,3c.14,2.35,0,4.71,0,7.17H44.16Z"/><rect x="12.41" y="24.97" width="22.52" height="6.72"/><path class="cls-1" d="M26,38.43H20.75c-1.48,0-2.51-.62-2.57-2.19a2.31,2.31,0,0,1,2.39-2.47c3.81-.08,7.62,0,11.43.2a2,2,0,0,1,2,2.21,2,2,0,0,1-2.12,2.23C29.89,38.48,28,38.43,26,38.43Z"/><path class="cls-1" d="M45.11,36.89c-.22-.47-.68-1-.58-1.39a1.85,1.85,0,0,1,1.14-1.08c1-.24,1.31.46,1.09,1.27-.12.47-.6.84-.92,1.26Z"/><path class="cls-1" d="M6.81,34.51v1.94c-2.2.51-2.36.36-2-1.94Z"/><path class="cls-1" d="M26.87,2.25a.81.81,0,1,1-.8-.81A.8.8,0,0,1,26.87,2.25Z"/><path class="cls-1" d="M53.45,31.92c0,.42-.06.84-.1,1.39H38V14.77H53.46c0,5.87,0,11.51,0,17.15ZM55,25c0-3.58,0-7.16,0-10.73,0-1.58-.69-2.6-2.31-2.7s-3.27,0-4.9,0c-3,0-5.94,0-8.91,0-1.87,0-2.68.86-2.68,2.7q0,10.56,0,21.1c0,2,.83,2.84,2.91,2.85q6.46,0,12.92,0c2.16,0,2.92-.83,2.94-3C55.06,31.78,55,28.38,55,25Z"/><circle cx="45.64" cy="13.27" r="0.58"/><path class="cls-2" d="M46.81,35.4a1.17,1.17,0,0,1-2.34,0,1.17,1.17,0,1,1,2.34,0Z"/><path class="cls-1" d="M46.18,35.4a.54.54,0,0,1-.54.54.55.55,0,1,1,0-1.09A.54.54,0,0,1,46.18,35.4Z"/><path class="cls-1" d="M9.36,27.94v5.41H1.67V22.66H9.36v5.28Zm1.62-6a2.29,2.29,0,0,0-2.51-2.5q-2.82,0-5.64,0c-2,0-2.8.83-2.82,2.92s0,4.36,0,6.54H0c0,2.25,0,4.49,0,6.73a2.32,2.32,0,0,0,2.41,2.61c2.06.09,4.12.1,6.18,0A2.3,2.3,0,0,0,11,35.74C11,31.13,11,26.53,11,21.92Z"/><path class="cls-2" d="M6.57,35.3A1.07,1.07,0,1,1,5.5,34.23,1.06,1.06,0,0,1,6.57,35.3Z"/><path class="cls-1" d="M6,35.3a.51.51,0,1,1-.51-.51A.51.51,0,0,1,6,35.3Z"/><path class="cls-1" d="M7.14,20.92a.21.21,0,0,1-.21.21H4.56a.22.22,0,0,1,0-.43H6.93A.21.21,0,0,1,7.14,20.92Z"/><path class="cls-1" d="M20.28,6.27c.24.28.08.8-.35,1.15L11.3,14.5c-.43.35-1,.41-1.2.12s-.07-.79.36-1.14l8.63-7.09C19.51,6,20.05,6,20.28,6.27Z"/><path class="cls-1" d="M15.06,6.68a.59.59,0,0,1,0,.82L11,10.89a.59.59,0,0,1-.79-.21.6.6,0,0,1-.06-.82l4.13-3.39A.61.61,0,0,1,15.06,6.68Z"/><path class="cls-1" d="M44.86,15.8c.14.17,0,.48-.21.69l-5.2,4.27c-.25.21-.58.24-.72.07s0-.48.21-.69l5.2-4.27C44.4,15.66,44.72,15.63,44.86,15.8Z"/><path class="cls-1" d="M41.72,16.05a.36.36,0,0,1,0,.49l-2.49,2a.35.35,0,0,1-.47-.12c-.14-.18-.16-.4,0-.5l2.48-2C41.36,15.82,41.58,15.88,41.72,16.05Z"/><path class="cls-1" d="M5.93,23.06c.08.1,0,.29-.13.41L2.69,26c-.15.13-.34.15-.43,0s0-.28.13-.41L5.5,23.1A.33.33,0,0,1,5.93,23.06Z"/><path class="cls-1" d="M4.05,23.21a.22.22,0,0,1,0,.29L2.58,24.72a.21.21,0,0,1-.28-.07c-.09-.11-.1-.24,0-.3l1.48-1.22C3.84,23.07,4,23.11,4.05,23.21Z"/></g></g></svg>