<svg xmlns="http://www.w3.org/2000/svg" viewBox="0 0 294.57 123.31"><defs><style>.cls-1{fill-rule:evenodd;}.cls-2{fill:#fcfcfc;stroke:#fffffd;}.cls-2,.cls-3{stroke-miterlimit:22.93;stroke-width:0.71px;}.cls-3{fill:#fff;stroke:#fcfcfa;}</style></defs><title>Слой 1</title><g id="Слой_2" data-name="Слой 2"><g id="Слой_1-2" data-name="Слой 1"><polygon class="cls-1" points="259.26 0.47 258.97 0 187.78 0 173.14 25.37 174.74 26.32 188.85 1.86 257.9 1.86 292.43 61.66 257.9 121.45 188.85 121.45 175.79 98.83 174.4 100.13 187.52 122.85 187.78 123.31 258.97 123.31 294.31 62.12 294.57 61.66 259.26 0.47"/><path d="M257,64.35v4.87a9.83,9.83,0,0,1-1.36,5.27,8.51,8.51,0,0,1-3.73,3.28,12.86,12.86,0,0,1-5.5,1.12,7.06,7.06,0,0,1-4.82-1.54,5.46,5.46,0,0,1-1.74-4.26,5.77,5.77,0,0,1,.79-3.15,5.15,5.15,0,0,1,2-1.83,11.39,11.39,0,0,1,2.8-1c1-.21,2.08-.39,3.11-.55s2-.3,2.92-.46a22.34,22.34,0,0,0,2.76-.61A15.19,15.19,0,0,0,257,64.35m13,21.1a17.84,17.84,0,0,1-1.11-3.81,29.43,29.43,0,0,1-.36-4c0-1.34-.06-2.66,0-4V54.93a15.41,15.41,0,0,0-1.13-6.12,11,11,0,0,0-3-4.08A14.21,14.21,0,0,0,260,42.29a24.38,24.38,0,0,0-5.11-1.18,39.78,39.78,0,0,0-5.33-.3q-9.42,0-14.49,3.68c-3.39,2.45-5.25,6.11-5.6,10.94h11.18a9.84,9.84,0,0,1,1.39-3.92,5.27,5.27,0,0,1,2.72-2.1,13.19,13.19,0,0,1,4.47-.62c2.64,0,4.61.47,5.89,1.42a5,5,0,0,1,1.92,4.38,3.34,3.34,0,0,1-1,2.69,7.5,7.5,0,0,1-3.39,1.52c-1.56.35-3.62.68-6.18,1-1.74.21-3.49.46-5.25.77a31.43,31.43,0,0,0-5.12,1.28,15.81,15.81,0,0,0-4.35,2.29,10.14,10.14,0,0,0-3,3.76,14.32,14.32,0,0,0,.72,12.7,12,12,0,0,0,5.33,4.51A20.27,20.27,0,0,0,243,86.71a22.36,22.36,0,0,0,5.13-.59,20.23,20.23,0,0,0,4.79-1.82,17.17,17.17,0,0,0,4.12-3.06c.06.63.12,1.17.17,1.6a8.93,8.93,0,0,0,.24,1.23,13.8,13.8,0,0,0,.43,1.38ZM223.94,42.07h-8.82V29H203.26V42.07H196v8.07h7.23V72.67a26.08,26.08,0,0,0,.66,6.54,8.36,8.36,0,0,0,2.23,4.07,8.6,8.6,0,0,0,4.13,2.08,27.55,27.55,0,0,0,6.43.59c.87,0,1.66,0,2.34,0s1.4,0,2.16-.11,1.65-.11,2.73-.2V76.54c-.7.08-1.31.12-1.88.15h-1.73a9.84,9.84,0,0,1-3-.36,2.88,2.88,0,0,1-1.54-1.12,4.31,4.31,0,0,1-.59-1.92,22.67,22.67,0,0,1-.09-2.73V50.14h8.82Zm-54.22,7.82a9.85,9.85,0,0,1,5.7,1.65A10.19,10.19,0,0,1,179,56.25a19.57,19.57,0,0,1,1.27,7.42,20.93,20.93,0,0,1-1.24,7.62,10.35,10.35,0,0,1-3.56,4.82,9.56,9.56,0,0,1-5.62,1.69,9.79,9.79,0,0,1-5.68-1.66,10.19,10.19,0,0,1-3.58-4.79,20.54,20.54,0,0,1-1.25-7.59,20.09,20.09,0,0,1,1.26-7.44,10.47,10.47,0,0,1,3.56-4.77A9.32,9.32,0,0,1,169.72,49.89Zm.33-9.08a25.29,25.29,0,0,0-9.27,1.65,20,20,0,0,0-7.13,4.65,20.42,20.42,0,0,0-4.58,7.25,26.4,26.4,0,0,0-1.63,9.4,27.32,27.32,0,0,0,1.61,9.46,20.56,20.56,0,0,0,4.54,7.25,19.75,19.75,0,0,0,7.08,4.67,26.6,26.6,0,0,0,18.42,0,19.59,19.59,0,0,0,7-4.65,20.69,20.69,0,0,0,4.53-7.26,28,28,0,0,0,1.58-9.48,27.57,27.57,0,0,0-1.58-9.4,21,21,0,0,0-4.5-7.25,19.73,19.73,0,0,0-7-4.65A24.51,24.51,0,0,0,170.05,40.81Zm-30.34,2.6a20.24,20.24,0,0,0-1.94-8.61,16.27,16.27,0,0,0-4.94-5.94,21.39,21.39,0,0,0-7.27-3.42,33.73,33.73,0,0,0-8.89-1.11,33.19,33.19,0,0,0-9.48,1.28,21.77,21.77,0,0,0-7.26,3.61,16.06,16.06,0,0,0-4.65,5.65,16.56,16.56,0,0,0-1.64,7.37,17,17,0,0,0,1,6.22,12.52,12.52,0,0,0,2.86,4.37,17.15,17.15,0,0,0,4.24,3,36.18,36.18,0,0,0,5.2,2.1c1.87.6,3.77,1.16,5.73,1.71,3.09.87,5.68,1.61,7.78,2.24a36.76,36.76,0,0,1,5.06,1.85,7.24,7.24,0,0,1,2.73,2.07,4.82,4.82,0,0,1,.83,2.92A7.15,7.15,0,0,1,127.77,73,8.43,8.43,0,0,1,124,75.74a16.44,16.44,0,0,1-5.94,1,19.21,19.21,0,0,1-7-1.12,9.74,9.74,0,0,1-4.68-3.64,12.07,12.07,0,0,1-1.84-6.5h-13A21.34,21.34,0,0,0,94.66,77a19.58,19.58,0,0,0,8.86,7.29,35,35,0,0,0,13.91,2.52,38.69,38.69,0,0,0,7.24-.66,28.86,28.86,0,0,0,6.7-2.07,20.19,20.19,0,0,0,5.54-3.7,16.41,16.41,0,0,0,3.77-5.46,19.13,19.13,0,0,0,1.38-7.44A15.84,15.84,0,0,0,140.83,61a13.33,13.33,0,0,0-3.5-4.72,22.09,22.09,0,0,0-5.51-3.4,52.09,52.09,0,0,0-7.24-2.55c-3-.83-5.62-1.52-7.91-2.09a57,57,0,0,1-5.73-1.73,9,9,0,0,1-3.5-2.06,4.2,4.2,0,0,1-1.19-3.12,5.89,5.89,0,0,1,1.16-3.67,7.15,7.15,0,0,1,3.31-2.33,14.87,14.87,0,0,1,5.2-.81c3.49,0,6.19.77,8.1,2.29a9,9,0,0,1,3.25,6.62Zm-55-1.34H72.79V85.45H84.73Zm0-16.48H72.79V35.68H84.73Z"/><rect x="24.36" y="67.86" width="25.79" height="1.16"/><rect x="38.71" y="53.37" width="3.48" height="15.07"/><rect x="39.72" y="55.11" width="0.14" height="1.88"/><rect x="40.3" y="55.11" width="0.43" height="1.88"/><rect x="41.03" y="55.11" width="0.14" height="1.88"/><rect x="41.61" y="55.11" width="0.29" height="1.88"/><rect x="39" y="57.43" width="0.29" height="2.17"/><rect x="39.72" y="57.43" width="0.14" height="2.17"/><rect x="41.03" y="57.43" width="0.14" height="2.17"/><rect x="39" y="59.89" width="0.29" height="2.17"/><rect x="39.72" y="59.89" width="0.14" height="2.17"/><rect x="40.3" y="59.89" width="0.43" height="2.17"/><rect x="41.03" y="59.89" width="0.14" height="2.17"/><rect x="41.61" y="59.89" width="0.29" height="2.17"/><rect x="39" y="62.65" width="0.29" height="1.88"/><rect x="40.3" y="62.65" width="0.43" height="1.88"/><rect x="41.03" y="62.65" width="0.14" height="1.88"/><rect x="41.61" y="62.65" width="0.29" height="1.88"/><rect x="39" y="64.82" width="0.29" height="2.03"/><rect x="39.72" y="64.82" width="0.14" height="2.03"/><rect x="40.3" y="64.82" width="0.43" height="2.03"/><rect x="41.61" y="64.82" width="0.29" height="2.03"/><rect x="28.28" y="56.42" width="2.9" height="12.03"/><rect x="28.42" y="57.72" width="0.43" height="0.72"/><rect x="29.58" y="57.72" width="0.29" height="0.72"/><rect x="30.02" y="57.72" width="0.14" height="0.72"/><rect x="30.59" y="57.72" width="0.14" height="0.72"/><rect x="28.42" y="58.59" width="0.43" height="1.01"/><rect x="29" y="58.59" width="0.43" height="1.01"/><rect x="29.58" y="58.59" width="0.29" height="1.01"/><rect x="30.59" y="58.59" width="0.14" height="1.01"/><rect x="28.42" y="59.75" width="0.43" height="0.87"/><rect x="29.58" y="59.75" width="0.29" height="0.87"/><rect x="30.02" y="59.75" width="0.14" height="0.87"/><rect x="30.59" y="59.75" width="0.14" height="0.87"/><rect x="28.42" y="60.76" width="0.43" height="1.01"/><rect x="29" y="60.76" width="0.43" height="1.01"/><rect x="29.58" y="60.76" width="0.29" height="1.01"/><rect x="30.02" y="60.76" width="0.14" height="1.01"/><rect x="30.59" y="60.76" width="0.14" height="1.01"/><rect x="28.42" y="61.92" width="0.43" height="0.72"/><rect x="29.58" y="61.92" width="0.29" height="0.72"/><rect x="30.59" y="61.92" width="0.14" height="0.72"/><rect x="28.42" y="62.94" width="0.43" height="0.58"/><rect x="29.58" y="62.94" width="0.29" height="0.58"/><rect x="30.02" y="62.94" width="0.14" height="0.58"/><rect x="30.59" y="62.94" width="0.14" height="0.58"/><rect x="28.42" y="63.52" width="0.43" height="1.01"/><rect x="29" y="63.52" width="0.43" height="1.01"/><rect x="29.58" y="63.52" width="0.29" height="1.01"/><rect x="30.59" y="63.52" width="0.14" height="1.01"/><rect x="29.58" y="64.82" width="0.29" height="0.72"/><rect x="30.02" y="64.82" width="0.14" height="0.72"/><rect x="28.42" y="65.69" width="0.43" height="1.01"/><rect x="29" y="65.69" width="0.43" height="1.01"/><rect x="29.58" y="65.69" width="0.29" height="1.01"/><rect x="30.02" y="65.69" width="0.14" height="1.01"/><rect x="30.59" y="65.69" width="0.14" height="1.01"/><rect x="28.42" y="66.85" width="0.43" height="0.87"/><rect x="29.58" y="66.85" width="0.29" height="0.87"/><rect x="30.59" y="66.85" width="0.14" height="0.87"/><rect x="35.09" y="54.68" width="3.19" height="13.76"/><rect x="36.1" y="56.42" width="0.14" height="1.88"/><rect x="37.11" y="56.42" width="0.14" height="1.88"/><rect x="37.69" y="56.42" width="0.29" height="1.88"/><rect x="36.1" y="58.59" width="0.14" height="2.03"/><rect x="36.68" y="58.59" width="0.14" height="2.03"/><rect x="37.69" y="58.59" width="0.29" height="2.03"/><rect x="36.1" y="60.76" width="0.14" height="1.88"/><rect x="37.11" y="60.76" width="0.14" height="1.88"/><rect x="37.69" y="60.76" width="0.29" height="1.88"/><rect x="36.1" y="63.23" width="0.14" height="1.59"/><rect x="36.68" y="63.23" width="0.14" height="1.59"/><rect x="37.69" y="63.23" width="0.29" height="1.59"/><rect x="36.68" y="65.25" width="0.14" height="1.74"/><rect x="37.69" y="65.25" width="0.29" height="1.74"/><polygon points="48.85 53.03 46.24 51.34 46.24 68.44 48.85 68.44 48.85 53.03"/><rect x="46.39" y="53.81" width="2.17" height="0.29"/><rect x="46.39" y="54.53" width="2.17" height="0.15"/><rect x="46.39" y="55.26" width="2.17" height="0.14"/><rect x="46.39" y="55.69" width="2.17" height="0.43"/><rect x="46.39" y="56.42" width="2.17" height="0.29"/><rect x="46.39" y="57" width="2.17" height="0.43"/><rect x="46.39" y="57.57" width="2.17" height="0.58"/><rect x="46.39" y="58.3" width="2.17" height="0.29"/><rect x="46.39" y="59.6" width="2.17" height="0.29"/><rect x="46.39" y="60.47" width="2.17" height="0.15"/><rect x="46.39" y="60.91" width="2.17" height="0.43"/><rect x="46.39" y="61.78" width="2.17" height="0.14"/><rect x="46.39" y="62.36" width="2.17" height="0.29"/><rect x="46.39" y="62.94" width="2.17" height="0.29"/><path d="M48.39,63.52h0Z"/><rect x="46.39" y="64.09" width="2.17" height="0.43"/><rect x="46.39" y="65.4" width="2.17" height="0.29"/><rect x="46.39" y="65.98" width="2.17" height="0.58"/><rect x="46.39" y="66.7" width="2.17" height="0.29"/><path d="M34.51,55.84h-.44v-.58h.44Zm0,2.31h-.44v-.86h.44Zm0,.73h-.44V58.3h.44Zm0,1.3h-.44v-.87h.44Zm0,1.16h-.44v-.72h.44Zm0,1h-.44v-.58h.44Zm0,1h-.44v-.72h.44Zm0,1.16h-.44v-1h.44Zm0,2.17h-.44v-1h.44Zm-.58-10.86h-.58v-.58h.58Zm0,1.16h-.58v-.87h.58Zm0,1.15h-.58v-.86h.58Zm0,.73h-.58V58.3h.58Zm0,1.3h-.58v-.87h.58Zm0,1.16h-.58v-.72h.58Zm0,2h-.58v-.72h.58Zm0,1.16h-.58v-1h.58Zm0,1h-.58v-.72h.58Zm0,1.16h-.58v-1h.58Zm-1-10.86h-.29v-.58h.29Zm0,2.31h-.29v-.86h.29Zm0,.73h-.29V58.3h.29Zm0,1.3h-.29v-.87h.29Zm0,1.16h-.29v-.72h.29Zm0,1h-.29v-.58h.29Zm0,1h-.29v-.72h.29Zm0,1.16h-.29v-1h.29Zm0,1h-.29v-.72h.29Zm-.72-9.7H31.9v-.58h.29Zm0,1.16H31.9v-.87h.29Zm0,1.15H31.9v-.86h.29Zm0,2H31.9v-.87h.29Zm0,1.16H31.9v-.72h.29Zm0,1H31.9v-.58h.29Zm0,1H31.9v-.72h.29Zm0,2.17H31.9v-.72h.29Zm0,1.16H31.9v-1h.29Zm1.74-13.33v-1.3h-2v1.3h-.44V68.44H34.8V53.37Z"/><rect x="31.9" y="55.26" width="0.29" height="0.58"/><rect x="32.62" y="55.26" width="0.29" height="0.58"/><rect x="33.35" y="55.26" width="0.58" height="0.58"/><rect x="34.07" y="55.26" width="0.43" height="0.58"/><rect x="31.9" y="56.13" width="0.29" height="0.87"/><rect x="33.35" y="56.13" width="0.58" height="0.87"/><rect x="31.9" y="57.29" width="0.29" height="0.87"/><rect x="32.62" y="57.29" width="0.29" height="0.87"/><rect x="33.35" y="57.29" width="0.58" height="0.87"/><rect x="34.07" y="57.29" width="0.43" height="0.87"/><rect x="32.62" y="58.3" width="0.29" height="0.58"/><rect x="33.35" y="58.3" width="0.58" height="0.58"/><rect x="34.07" y="58.3" width="0.43" height="0.58"/><rect x="31.9" y="59.31" width="0.29" height="0.87"/><rect x="32.62" y="59.31" width="0.29" height="0.87"/><rect x="33.35" y="59.31" width="0.58" height="0.87"/><rect x="34.07" y="59.31" width="0.43" height="0.87"/><rect x="31.9" y="60.62" width="0.29" height="0.72"/><rect x="32.62" y="60.62" width="0.29" height="0.72"/><rect x="33.35" y="60.62" width="0.58" height="0.72"/><rect x="34.07" y="60.62" width="0.43" height="0.72"/><rect x="31.9" y="61.78" width="0.29" height="0.58"/><rect x="32.62" y="61.78" width="0.29" height="0.58"/><rect x="34.07" y="61.78" width="0.43" height="0.58"/><rect x="31.9" y="62.65" width="0.29" height="0.72"/><rect x="32.62" y="62.65" width="0.29" height="0.72"/><rect x="33.35" y="62.65" width="0.58" height="0.72"/><rect x="34.07" y="62.65" width="0.43" height="0.72"/><rect x="32.62" y="63.52" width="0.29" height="1.01"/><rect x="33.35" y="63.52" width="0.58" height="1.01"/><rect x="34.07" y="63.52" width="0.43" height="1.01"/><rect x="31.9" y="64.82" width="0.29" height="0.72"/><rect x="32.62" y="64.82" width="0.29" height="0.72"/><rect x="33.35" y="64.82" width="0.58" height="0.72"/><rect x="31.9" y="65.69" width="0.29" height="1.01"/><rect x="33.35" y="65.69" width="0.58" height="1.01"/><rect x="34.07" y="65.69" width="0.43" height="1.01"/><path d="M45.81,57.29h-.58V56.13h.58Zm0,1.3h-.58v-1h.58Zm0,1.88h-.58V59.31h.58Zm0,1.6h-.58V60.91h.58Zm0,1.45h-.58v-.87h.58Zm0,1.73h-.58V64.09h.58Zm0,1.6h-.58V65.69h.58Zm-.73-9.56h-.43V56.13h.43Zm0,3.18h-.43V59.31h.43Zm0,1.6h-.43V60.91h.43Zm0,1.45h-.43v-.87h.43Zm0,1.73h-.43V64.09h.43Zm0,1.6h-.43V65.69h.43Zm-.87-9.56h-.29V56.13h.29Zm0,1.3h-.29v-1h.29Zm0,1.88h-.29V59.31h.29Zm0,1.6h-.29V60.91h.29Zm0,1.45h-.29v-.87h.29Zm0,3.33h-.29V65.69h.29Zm-.43-9.56h-.44V56.13h.44Zm0,1.3h-.44v-1h.44Zm0,3.48h-.44V60.91h.44Zm0,3.18h-.44V64.09h.44Zm0,1.6h-.44V65.69h.44Zm-.72-9.56h-.15V56.13h.15Zm0,1.3h-.15v-1h.15Zm0,1.88h-.15V59.31h.15Zm0,1.6h-.15V60.91h.15Zm0,1.45h-.15v-.87h.15Zm0,1.73h-.15V64.09h.15Zm0,1.6h-.15V65.69h.15Zm.28-12.61h.44V55.4h-.44Zm.58.88h0v-.88h.29V55.4h-.29Zm.73-.88h.43V55.4h-.43Zm.72,1.16V53.66H44.21v-2h-.29v2h-.86V55.4h-.29v13H46v-13Z"/><rect x="42.91" y="56.13" width="0.15" height="1.16"/><rect x="43.34" y="56.13" width="0.43" height="1.16"/><rect x="43.92" y="56.13" width="0.29" height="1.16"/><rect x="44.65" y="56.13" width="0.43" height="1.16"/><rect x="45.23" y="56.13" width="0.58" height="1.16"/><rect x="42.91" y="57.57" width="0.15" height="1.01"/><rect x="43.34" y="57.57" width="0.43" height="1.01"/><rect x="43.92" y="57.57" width="0.29" height="1.01"/><rect x="45.23" y="57.57" width="0.58" height="1.01"/><rect x="42.91" y="59.31" width="0.15" height="1.16"/><rect x="43.92" y="59.31" width="0.29" height="1.16"/><rect x="44.65" y="59.31" width="0.43" height="1.16"/><rect x="45.23" y="59.31" width="0.58" height="1.16"/><rect x="42.91" y="60.91" width="0.15" height="1.16"/><rect x="43.34" y="60.91" width="0.43" height="1.16"/><rect x="43.92" y="60.91" width="0.29" height="1.16"/><rect x="44.65" y="60.91" width="0.43" height="1.16"/><rect x="45.23" y="60.91" width="0.58" height="1.16"/><rect x="42.91" y="62.65" width="0.15" height="0.87"/><rect x="43.92" y="62.65" width="0.29" height="0.87"/><rect x="44.65" y="62.65" width="0.43" height="0.87"/><rect x="45.23" y="62.65" width="0.58" height="0.87"/><rect x="42.91" y="64.09" width="0.15" height="1.16"/><rect x="43.34" y="64.09" width="0.43" height="1.16"/><rect x="44.65" y="64.09" width="0.43" height="1.16"/><rect x="45.23" y="64.09" width="0.58" height="1.16"/><rect x="42.91" y="65.69" width="0.15" height="1.16"/><rect x="43.34" y="65.69" width="0.43" height="1.16"/><rect x="43.92" y="65.69" width="0.29" height="1.16"/><rect x="44.65" y="65.69" width="0.43" height="1.16"/><rect x="45.23" y="65.69" width="0.58" height="1.16"/><rect x="43.34" y="54.24" width="0.43" height="1.16"/><polygon points="44.21 55.12 44.21 54.24 43.92 54.24 43.92 55.12 43.92 55.4 44.21 55.4 44.21 55.12"/><rect x="44.65" y="54.24" width="0.43" height="1.16"/><path d="M27.7,60.18H25.81v-.43H27.7Zm0,.73H25.81v-.29H27.7Zm0,1H25.81v-.58H27.7Zm0,.73H25.81v-.29H27.7Zm0,.87H25.81v-.29H27.7Zm0,.86H25.81v-.29H27.7Zm0,.87H25.81v-.43H27.7Zm0,.73H25.81v-.29H27.7Zm-1.45-7.1v.43H26v-.43h-.44V68h2.32V58.88Z"/><rect x="25.81" y="59.75" width="1.88" height="0.43"/><rect x="25.81" y="60.62" width="1.88" height="0.29"/><rect x="25.81" y="61.34" width="1.88" height="0.58"/><rect x="25.81" y="62.36" width="1.88" height="0.29"/><rect x="25.81" y="63.23" width="1.88" height="0.29"/><rect x="25.81" y="64.09" width="1.88" height="0.29"/><rect x="25.81" y="64.82" width="1.88" height="0.43"/><rect x="25.81" y="65.69" width="1.88" height="0.29"/><polygon points="26.25 59.31 26.25 58.95 26.25 58.3 25.96 58.3 25.96 58.95 25.96 59.31 26.25 59.31"/><path d="M37.51,79.83a2.12,2.12,0,0,0-1.94,2,1.8,1.8,0,0,0,1.94,1.73,1.63,1.63,0,0,0,1.62-1.73c0-.95-.76-2-1.62-2"/><path d="M50.15,78.58H24.51V33.52H50.15ZM37.51,84.32h0a2.48,2.48,0,1,1,2.32-2.47A2.4,2.4,0,0,1,37.51,84.32Zm9.39-58H27.84c-2.28,0-4.63,2-4.63,4.18V80.31a5.06,5.06,0,0,0,4.63,5.08H46.9c2.24,0,4.56-2.27,4.56-5.08V30.46C51.46,28.29,49.14,26.28,46.9,26.28Z"/><path d="M37.83,30.74h0a2.72,2.72,0,0,0,1.52-.56c0-.06.28.38-.18-.27.57.42.62.32.92.31-.56-.57-.46-.1-.19-.54-.34,0-.83.12-.9-.2-.84.06-1.9.64-3.29.07.15-.22-.55,0-.49.32,0,.09-.09.17.33,0-.45.25-.23.76-.29.74.32-.65.55.16.19-.58.57.73,1,.73,2.38.73M31.92,30V27.56h5.35c0,.28-.28.27-.36.68-.2-.39-.06,0,.29-.45.62.43.26.44,0,.44.91-.46.21-.39,0-.67h2.23v3H31.92V30c.54.42.77.25,1.19.46-.32.14.32-.74.19-.76-.31-.13-.09-.18-.48.09C32.94,29.2,32.59,29.7,31.92,30Z"/><path class="cls-1" d="M37,27.65a.35.35,0,0,1,.34.35.34.34,0,1,1-.68,0,.35.35,0,0,1,.34-.35"/><path class="cls-1" d="M32.31,29.53a.48.48,0,0,1,.46.48.47.47,0,1,1-.93,0,.48.48,0,0,1,.47-.48"/><path class="cls-1" d="M39,29.81c.67,0,1.21.11,1.21.23s-.54.24-1.21.24-1.22-.11-1.22-.24.55-.23,1.22-.23"/><path class="cls-1" d="M35.88,29.82c.67,0,1.21.1,1.21.23s-.54.23-1.21.23-1.22-.1-1.22-.23.55-.23,1.22-.23"/><rect x="35.8" y="29.81" width="3.38" height="0.46"/><rect x="33.03" y="78.58" width="9.62" height="5.88"/><path class="cls-2" d="M37.63,80.13a1.58,1.58,0,1,1-1.57,1.57A1.57,1.57,0,0,1,37.63,80.13Z"/><rect x="1" y="70.4" width="22.14" height="0.99"/><rect x="13.31" y="57.96" width="2.98" height="12.94"/><rect x="14.18" y="59.46" width="0.12" height="1.62"/><rect x="14.68" y="59.46" width="0.37" height="1.62"/><rect x="15.3" y="59.46" width="0.12" height="1.62"/><rect x="15.8" y="59.46" width="0.25" height="1.62"/><rect x="13.56" y="61.45" width="0.25" height="1.87"/><rect x="14.18" y="61.45" width="0.12" height="1.87"/><rect x="15.3" y="61.45" width="0.12" height="1.87"/><rect x="13.56" y="63.56" width="0.25" height="1.87"/><rect x="14.18" y="63.56" width="0.12" height="1.87"/><rect x="14.68" y="63.56" width="0.37" height="1.87"/><rect x="15.3" y="63.56" width="0.12" height="1.87"/><rect x="15.8" y="63.56" width="0.25" height="1.87"/><rect x="13.56" y="65.92" width="0.25" height="1.62"/><rect x="14.68" y="65.92" width="0.37" height="1.62"/><rect x="15.3" y="65.92" width="0.12" height="1.62"/><rect x="15.8" y="65.92" width="0.25" height="1.62"/><rect x="13.56" y="67.79" width="0.25" height="1.74"/><rect x="14.18" y="67.79" width="0.12" height="1.74"/><rect x="14.68" y="67.79" width="0.37" height="1.74"/><rect x="15.8" y="67.79" width="0.25" height="1.74"/><rect x="4.35" y="60.58" width="2.49" height="10.32"/><rect x="4.48" y="61.7" width="0.37" height="0.62"/><rect x="5.47" y="61.7" width="0.25" height="0.62"/><rect x="5.85" y="61.7" width="0.12" height="0.62"/><rect x="6.34" y="61.7" width="0.12" height="0.62"/><rect x="4.48" y="62.44" width="0.37" height="0.87"/><rect x="4.98" y="62.44" width="0.37" height="0.87"/><rect x="5.47" y="62.44" width="0.25" height="0.87"/><rect x="6.34" y="62.44" width="0.12" height="0.87"/><rect x="4.48" y="63.44" width="0.37" height="0.75"/><rect x="5.47" y="63.44" width="0.25" height="0.75"/><rect x="5.85" y="63.44" width="0.12" height="0.75"/><rect x="6.34" y="63.44" width="0.12" height="0.75"/><rect x="4.48" y="64.31" width="0.37" height="0.87"/><rect x="4.98" y="64.31" width="0.37" height="0.87"/><rect x="5.47" y="64.31" width="0.25" height="0.87"/><rect x="5.85" y="64.31" width="0.12" height="0.87"/><rect x="6.34" y="64.31" width="0.12" height="0.87"/><rect x="4.48" y="65.3" width="0.37" height="0.62"/><rect x="5.47" y="65.3" width="0.25" height="0.62"/><rect x="6.34" y="65.3" width="0.12" height="0.62"/><rect x="4.48" y="66.17" width="0.37" height="0.5"/><rect x="5.47" y="66.17" width="0.25" height="0.5"/><rect x="5.85" y="66.17" width="0.12" height="0.5"/><rect x="6.34" y="66.17" width="0.12" height="0.5"/><rect x="4.48" y="66.67" width="0.37" height="0.87"/><rect x="4.98" y="66.67" width="0.37" height="0.87"/><rect x="5.47" y="66.67" width="0.25" height="0.87"/><rect x="6.34" y="66.67" width="0.12" height="0.87"/><rect x="5.47" y="67.79" width="0.25" height="0.62"/><rect x="5.85" y="67.79" width="0.12" height="0.62"/><rect x="4.48" y="68.54" width="0.37" height="0.87"/><rect x="4.98" y="68.54" width="0.37" height="0.87"/><rect x="5.47" y="68.54" width="0.25" height="0.87"/><rect x="5.85" y="68.54" width="0.12" height="0.87"/><rect x="6.34" y="68.54" width="0.12" height="0.87"/><rect x="4.48" y="69.53" width="0.37" height="0.75"/><rect x="5.47" y="69.53" width="0.25" height="0.75"/><rect x="6.34" y="69.53" width="0.12" height="0.75"/><rect x="10.2" y="59.08" width="2.74" height="11.82"/><rect x="11.07" y="60.58" width="0.12" height="1.62"/><rect x="11.94" y="60.58" width="0.12" height="1.62"/><rect x="12.44" y="60.58" width="0.25" height="1.62"/><rect x="11.07" y="62.44" width="0.12" height="1.74"/><rect x="11.57" y="62.44" width="0.12" height="1.74"/><rect x="12.44" y="62.44" width="0.25" height="1.74"/><rect x="11.07" y="64.31" width="0.12" height="1.62"/><rect x="11.94" y="64.31" width="0.12" height="1.62"/><rect x="12.44" y="64.31" width="0.25" height="1.62"/><rect x="11.07" y="66.42" width="0.12" height="1.37"/><rect x="11.57" y="66.42" width="0.12" height="1.37"/><rect x="12.44" y="66.42" width="0.25" height="1.37"/><rect x="11.57" y="68.16" width="0.12" height="1.49"/><rect x="12.44" y="68.16" width="0.25" height="1.49"/><polygon points="22.02 57.67 19.78 56.22 19.78 70.9 22.02 70.9 22.02 57.67"/><rect x="19.9" y="58.34" width="1.87" height="0.25"/><rect x="19.9" y="58.96" width="1.87" height="0.12"/><rect x="19.9" y="59.58" width="1.87" height="0.12"/><rect x="19.9" y="59.95" width="1.87" height="0.37"/><rect x="19.9" y="60.58" width="1.87" height="0.25"/><rect x="19.9" y="61.07" width="1.87" height="0.37"/><rect x="19.9" y="61.57" width="1.87" height="0.5"/><rect x="19.9" y="62.19" width="1.87" height="0.25"/><rect x="19.9" y="63.31" width="1.87" height="0.25"/><rect x="19.9" y="64.06" width="1.87" height="0.12"/><rect x="19.9" y="64.43" width="1.87" height="0.37"/><rect x="19.9" y="65.18" width="1.87" height="0.12"/><rect x="19.9" y="65.68" width="1.87" height="0.25"/><rect x="19.9" y="66.17" width="1.87" height="0.25"/><path d="M21.62,66.67h0Z"/><rect x="19.9" y="67.17" width="1.87" height="0.37"/><rect x="19.9" y="68.29" width="1.87" height="0.25"/><rect x="19.9" y="68.79" width="1.87" height="0.5"/><rect x="19.9" y="69.41" width="1.87" height="0.25"/><path d="M9.7,60.08H9.33v-.5H9.7Zm0,2H9.33v-.75H9.7Zm0,.62H9.33v-.5H9.7Zm0,1.12H9.33v-.75H9.7Zm0,1H9.33v-.63H9.7Zm0,.87H9.33v-.5H9.7Zm0,.87H9.33v-.63H9.7Zm0,1H9.33v-.87H9.7Zm0,1.87H9.33v-.87H9.7Zm-.5-9.33H8.71v-.5H9.2Zm0,1H8.71v-.74H9.2Zm0,1H8.71v-.75H9.2Zm0,.62H8.71v-.5H9.2Zm0,1.12H8.71v-.75H9.2Zm0,1H8.71v-.63H9.2Zm0,1.74H8.71v-.63H9.2Zm0,1H8.71v-.87H9.2Zm0,.87H8.71v-.62H9.2Zm0,1H8.71v-.87H9.2Zm-.87-9.33H8.08v-.5h.25Zm0,2H8.08v-.75h.25Zm0,.62H8.08v-.5h.25Zm0,1.12H8.08v-.75h.25Zm0,1H8.08v-.63h.25Zm0,.87H8.08v-.5h.25Zm0,.87H8.08v-.63h.25Zm0,1H8.08v-.87h.25Zm0,.87H8.08v-.62h.25Zm-.62-8.33H7.46v-.5h.25Zm0,1H7.46v-.74h.25Zm0,1H7.46v-.75h.25Zm0,1.74H7.46v-.75h.25Zm0,1H7.46v-.63h.25Zm0,.87H7.46v-.5h.25Zm0,.87H7.46v-.63h.25Zm0,1.86H7.46v-.62h.25Zm0,1H7.46v-.87h.25ZM9.2,58V56.84H7.46V58H7.09V70.9H10V58Z"/><rect x="7.46" y="59.58" width="0.25" height="0.5"/><rect x="8.08" y="59.58" width="0.25" height="0.5"/><rect x="8.71" y="59.58" width="0.5" height="0.5"/><rect x="9.33" y="59.58" width="0.37" height="0.5"/><rect x="7.46" y="60.33" width="0.25" height="0.75"/><rect x="8.71" y="60.33" width="0.5" height="0.75"/><rect x="7.46" y="61.32" width="0.25" height="0.75"/><rect x="8.08" y="61.32" width="0.25" height="0.75"/><rect x="8.71" y="61.32" width="0.5" height="0.75"/><rect x="9.33" y="61.32" width="0.37" height="0.75"/><rect x="8.08" y="62.19" width="0.25" height="0.5"/><rect x="8.71" y="62.19" width="0.5" height="0.5"/><rect x="9.33" y="62.19" width="0.37" height="0.5"/><rect x="7.46" y="63.06" width="0.25" height="0.75"/><rect x="8.08" y="63.06" width="0.25" height="0.75"/><rect x="8.71" y="63.06" width="0.5" height="0.75"/><rect x="9.33" y="63.06" width="0.37" height="0.75"/><rect x="7.46" y="64.18" width="0.25" height="0.62"/><rect x="8.08" y="64.18" width="0.25" height="0.62"/><rect x="8.71" y="64.18" width="0.5" height="0.62"/><rect x="9.33" y="64.18" width="0.37" height="0.62"/><rect x="7.46" y="65.18" width="0.25" height="0.5"/><rect x="8.08" y="65.18" width="0.25" height="0.5"/><rect x="9.33" y="65.18" width="0.37" height="0.5"/><rect x="7.46" y="65.92" width="0.25" height="0.62"/><rect x="8.08" y="65.92" width="0.25" height="0.62"/><rect x="8.71" y="65.92" width="0.5" height="0.62"/><rect x="9.33" y="65.92" width="0.37" height="0.62"/><rect x="8.08" y="66.67" width="0.25" height="0.87"/><rect x="8.71" y="66.67" width="0.5" height="0.87"/><rect x="9.33" y="66.67" width="0.37" height="0.87"/><rect x="7.46" y="67.79" width="0.25" height="0.62"/><rect x="8.08" y="67.79" width="0.25" height="0.62"/><rect x="8.71" y="67.79" width="0.5" height="0.62"/><rect x="7.46" y="68.54" width="0.25" height="0.87"/><rect x="8.71" y="68.54" width="0.5" height="0.87"/><rect x="9.33" y="68.54" width="0.37" height="0.87"/><path d="M19.4,61.32h-.49v-1h.49Zm0,1.12h-.49v-.87h.49Zm0,1.62h-.49v-1h.49Zm0,1.37h-.49v-1h.49Zm0,1.24h-.49v-.75h.49Zm0,1.49h-.49v-1h.49Zm0,1.37h-.49v-1h.49Zm-.62-8.21h-.37v-1h.37Zm0,2.74h-.37v-1h.37Zm0,1.37h-.37v-1h.37Zm0,1.24h-.37v-.75h.37Zm0,1.49h-.37v-1h.37Zm0,1.37h-.37v-1h.37ZM18,61.32h-.25v-1H18Zm0,1.12h-.25v-.87H18Zm0,1.62h-.25v-1H18Zm0,1.37h-.25v-1H18Zm0,1.24h-.25v-.75H18Zm0,2.86h-.25v-1H18Zm-.38-8.21h-.37v-1h.37Zm0,1.12h-.37v-.87h.37Zm0,3h-.37v-1h.37Zm0,2.73h-.37v-1h.37Zm0,1.37h-.37v-1h.37ZM17,61.32h-.12v-1H17Zm0,1.12h-.12v-.87H17Zm0,1.62h-.12v-1H17Zm0,1.37h-.12v-1H17Zm0,1.24h-.12v-.75H17Zm0,1.49h-.12v-1H17Zm0,1.37h-.12v-1H17Zm.25-10.82h.37v1h-.37Zm.5.75h0v-.75H18v1h-.25Zm.62-.75h.37v1h-.37Zm.62,1v-1.5H18V56.47h-.25v1.74H17v1.5h-.25V70.9h2.74V59.71Z"/><rect x="16.92" y="60.33" width="0.12" height="1"/><rect x="17.29" y="60.33" width="0.37" height="1"/><rect x="17.79" y="60.33" width="0.25" height="1"/><rect x="18.41" y="60.33" width="0.37" height="1"/><rect x="18.91" y="60.33" width="0.5" height="1"/><rect x="16.92" y="61.57" width="0.12" height="0.87"/><rect x="17.29" y="61.57" width="0.37" height="0.87"/><rect x="17.79" y="61.57" width="0.25" height="0.87"/><rect x="18.91" y="61.57" width="0.5" height="0.87"/><rect x="16.92" y="63.06" width="0.12" height="1"/><rect x="17.79" y="63.06" width="0.25" height="1"/><rect x="18.41" y="63.06" width="0.37" height="1"/><rect x="18.91" y="63.06" width="0.5" height="1"/><rect x="16.92" y="64.43" width="0.12" height="0.99"/><rect x="17.29" y="64.43" width="0.37" height="0.99"/><rect x="17.79" y="64.43" width="0.25" height="0.99"/><rect x="18.41" y="64.43" width="0.37" height="0.99"/><rect x="18.91" y="64.43" width="0.5" height="0.99"/><rect x="16.92" y="65.92" width="0.12" height="0.75"/><rect x="17.79" y="65.92" width="0.25" height="0.75"/><rect x="18.41" y="65.92" width="0.37" height="0.75"/><rect x="18.91" y="65.92" width="0.5" height="0.75"/><rect x="16.92" y="67.17" width="0.12" height="0.99"/><rect x="17.29" y="67.17" width="0.37" height="0.99"/><rect x="18.41" y="67.17" width="0.37" height="0.99"/><rect x="18.91" y="67.17" width="0.5" height="0.99"/><rect x="16.92" y="68.54" width="0.12" height="1"/><rect x="17.29" y="68.54" width="0.37" height="1"/><rect x="17.79" y="68.54" width="0.25" height="1"/><rect x="18.41" y="68.54" width="0.37" height="1"/><rect x="18.91" y="68.54" width="0.5" height="1"/><rect x="17.29" y="58.71" width="0.37" height="1"/><polygon points="18.04 59.46 18.04 58.71 17.79 58.71 17.79 59.46 17.79 59.7 18.04 59.7 18.04 59.46"/><rect x="18.41" y="58.71" width="0.37" height="1"/><path d="M3.86,63.81H2.24v-.37H3.86Zm0,.62H2.24v-.25H3.86Zm0,.87H2.24v-.49H3.86Zm0,.62H2.24v-.24H3.86Zm0,.75H2.24v-.25H3.86Zm0,.75H2.24v-.25H3.86Zm0,.74H2.24v-.37H3.86Zm0,.63H2.24v-.25H3.86Zm-1.25-6.1v.37H2.36v-.37H2v7.84H4V62.69Z"/><rect x="2.24" y="63.44" width="1.62" height="0.37"/><rect x="2.24" y="64.18" width="1.62" height="0.25"/><rect x="2.24" y="64.81" width="1.62" height="0.5"/><rect x="2.24" y="65.68" width="1.62" height="0.25"/><rect x="2.24" y="66.42" width="1.62" height="0.25"/><rect x="2.24" y="67.17" width="1.62" height="0.25"/><rect x="2.24" y="67.79" width="1.62" height="0.37"/><rect x="2.24" y="68.54" width="1.62" height="0.25"/><polygon points="2.61 63.06 2.61 62.75 2.61 62.19 2.36 62.19 2.36 62.75 2.36 63.06 2.61 63.06"/><path d="M12.28,80.68a1.82,1.82,0,0,0-1.67,1.73,1.54,1.54,0,0,0,1.67,1.48,1.4,1.4,0,0,0,1.39-1.48c0-.82-.65-1.73-1.39-1.73"/><path d="M23.14,79.61h-22V40.92h22ZM12.28,84.54h0a2.13,2.13,0,1,1,2-2.13A2.08,2.08,0,0,1,12.28,84.54ZM20.34,34.7H4c-1.95,0-4,1.73-4,3.59v42.8a4.35,4.35,0,0,0,4,4.36H20.34a4.31,4.31,0,0,0,3.91-4.36V38.29A4,4,0,0,0,20.34,34.7Z"/><path d="M12.55,38.54h0a2.32,2.32,0,0,0,1.31-.49s.24.33-.15-.23c.49.36.52.28.78.27-.47-.49-.39-.09-.16-.46-.29,0-.71.1-.77-.17-.72,0-1.63.54-2.82,0,.12-.18-.48,0-.43.28,0,.07-.07.14.28,0-.38.22-.19.65-.25.63.28-.56.48.14.17-.49.49.62.88.62,2,.63m-5.07-.62V35.8h4.6c0,.24-.25.23-.31.59-.17-.34-.06,0,.25-.39.53.37.21.38,0,.38.78-.4.17-.34,0-.58h1.91v2.61H7.48v-.52c.47.36.66.22,1,.39-.27.12.28-.63.17-.65-.27-.11-.08-.15-.42.08C8.36,37.21,8.06,37.64,7.48,37.92Z"/><path class="cls-1" d="M11.84,35.88a.31.31,0,1,1-.29.3.3.3,0,0,1,.29-.3"/><path class="cls-1" d="M7.81,37.5a.4.4,0,0,1,.4.41.41.41,0,0,1-.4.41.4.4,0,0,1-.39-.41.4.4,0,0,1,.39-.41"/><path class="cls-1" d="M13.53,37.74c.58,0,1.05.09,1.05.2s-.47.2-1.05.2-1-.09-1-.2.47-.2,1-.2"/><path class="cls-1" d="M10.88,37.74c.58,0,1,.09,1,.2s-.46.2-1,.2-1.05-.09-1.05-.2.47-.2,1.05-.2"/><rect x="10.81" y="37.74" width="2.9" height="0.4"/><rect x="8.44" y="79.61" width="8.26" height="5.05"/><circle class="cls-3" cx="12.39" cy="82.28" r="1.35"/></g></g></svg>