<?xml version="1.0" standalone="no"?>
<!DOCTYPE svg PUBLIC "-//W3C//DTD SVG 20010904//EN"
 "http://www.w3.org/TR/2001/REC-SVG-20010904/DTD/svg10.dtd">
<svg version="1.0" xmlns="http://www.w3.org/2000/svg"
 width="512.000000pt" height="512.000000pt" viewBox="0 0 512.000000 512.000000"
 preserveAspectRatio="xMidYMid meet">
<metadata>
Created by potrace 1.11, written by Peter Selinger 2001-2013
</metadata>
<g transform="translate(0.000000,512.000000) scale(0.100000,-0.100000)"
fill="#000000" stroke="none">
<path d="M2386 4199 c-259 -27 -519 -123 -751 -276 -134 -89 -347 -301 -434
-433 -62 -93 -162 -281 -175 -330 -4 -14 15 19 43 73 82 162 156 262 291 398
224 225 459 353 774 421 147 32 455 32 603 0 623 -136 1089 -617 1195 -1237
17 -102 19 -148 15 -300 -6 -192 -17 -262 -69 -425 -96 -301 -306 -587 -561
-767 -430 -302 -965 -365 -1456 -171 -335 134 -625 404 -793 737 -26 53 -48
91 -48 85 0 -6 31 -74 70 -150 224 -447 636 -768 1123 -873 859 -186 1720 346
1941 1199 38 146 50 241 50 410 0 170 -12 263 -51 415 -46 177 -124 349 -234
515 -88 133 -300 344 -436 434 -336 222 -710 316 -1097 275z"/>
<path d="M2060 3930 c-114 -20 -278 -74 -374 -122 -268 -135 -501 -371 -632
-640 -15 -32 -31 -53 -35 -47 -3 6 -11 -2 -17 -18 -7 -23 -7 -30 3 -30 7 0 11
9 9 21 -3 12 -1 15 2 8 4 -9 21 14 46 60 179 330 491 562 868 644 118 26 380
26 500 0 254 -55 463 -168 645 -351 325 -325 445 -769 330 -1220 -102 -402
-425 -745 -827 -879 -521 -174 -1107 16 -1424 460 -26 36 -66 99 -89 140 -31
54 -44 70 -49 58 -4 -9 -4 -19 -1 -22 3 -3 5 1 5 9 0 8 23 -28 50 -80 132
-249 330 -449 580 -588 88 -49 231 -102 353 -131 99 -23 133 -26 297 -27 206
0 279 11 457 70 858 286 1212 1329 708 2086 -220 330 -576 554 -969 608 -116
16 -315 12 -436 -9z"/>
<path d="M1005 2039 c-4 -6 -5 -12 -2 -15 2 -3 7 2 10 11 7 17 1 20 -8 4z"/>
</g>
</svg>
